<?xml version="1.0" encoding="UTF-8"?><svg id="keycap_svg" xmlns="http://www.w3.org/2000/svg" viewBox="0 0 60 60"><defs><style>.cls-1{fill:#d62828;}.cls-1,.cls-2{stroke:#fff;stroke-miterlimit:10;}.cls-2{fill:none;stroke-width:2px;}</style></defs><path class="cls-1" d="M4.89,20.81l6.87-7.83c.29-.41,.75-.68,1.26-.72l3.82-.65c6.7-1.15,13.19-3.25,19.29-6.25h0c.89-.78,2.29-.44,2.72,.67l16.94,33.04c.32,.82-.04,1.75-.83,2.15l-37.31,13.14c-.93,.46-2.05,0-2.38-.98L4.67,22.34c-.18-.52-.1-1.09,.22-1.54Z"/><polyline class="cls-2" points="13.02 12.26 23.25 38.07 16.24 55"/><path class="cls-2" d="M23.25,38.07l.92-.15c10.11,.15,21.14-4.75,26.04-9.65"/><text/></svg>