<?xml version="1.0" encoding="UTF-8"?><svg id="switch_svg" xmlns="http://www.w3.org/2000/svg" viewBox="0 0 60 60"><defs><style>.cls-1{fill:#fff;stroke-width:.25px;}.cls-1,.cls-2,.cls-3,.cls-4{stroke:#fff;stroke-miterlimit:10;}.cls-2{stroke-width:2px;}.cls-2,.cls-3,.cls-4,.cls-5{fill:#d62828;}.cls-4{stroke-width:3px;}</style></defs><path class="cls-3" d="M26.38,6.08h9.35c.83,0,1.51,.68,1.5,1.52l-.1,8.48h2.2l1.72,1.72h3.81c.84,0,1.6,.5,1.94,1.27l5.57,13.15,.02,2.67c0,.1-.09,.19-.2,.19h-1.38c-.7,0-1.32,.47-1.5,1.15l.05,4.22c0,.51-.07,1.02-.23,1.5l-1.43,4.45c-.13,.42-.53,.71-.97,.7l-10.26-.03-.16,4.58c-.04,1.62-1.37,2.92-2.99,2.92h-3.96s2.04,0,2.04,0h-3.96c-1.62,0-2.95-1.3-2.99-2.92l-.16-4.58-10.26,.03c-.44,0-.83-.28-.97-.7l-1.43-4.45c-.16-.49-.23-.99-.23-1.5l.05-4.22c-.18-.68-.8-1.15-1.5-1.15h-1.38c-.1,0-.19-.08-.2-.19l.02-2.67,5.57-13.15c.34-.77,1.1-1.27,1.94-1.27h3.81l1.72-1.72h2.2l-.1-8.48c0-.83,.66-1.52,1.5-1.52h9.35"/><polyline class="cls-5" points="20.38 44.08 20.38 52.07 19.37 54.5 18.37 52.07 18.37 44.1"/><polyline class="cls-5" points="40.59 44.08 40.59 52.5 41.66 54.5 42.68 52.5 42.74 44.1"/><polyline class="cls-2" points="37.5 34.5 35.5 40.5 25.56 40.5 23.22 34.08"/><line class="cls-3" x1="43" y1="34.5" x2="17" y2="34.5"/><line class="cls-4" x1="17.33" y1="17.81" x2="17.33" y2="35"/><line class="cls-4" x1="43.41" y1="17.81" x2="43.41" y2="35"/><polygon class="cls-1" points="8.38 34.9 52.38 34.9 52.36 32.23 8.4 32.23 8.38 34.9"/></svg>